<?xml version="1.0" standalone="no"?>
<!DOCTYPE svg PUBLIC "-//W3C//DTD SVG 20010904//EN"
 "http://www.w3.org/TR/2001/REC-SVG-20010904/DTD/svg10.dtd">
<svg version="1.0" xmlns="http://www.w3.org/2000/svg"
 width="498.000000pt" height="498.000000pt" viewBox="0 0 498.000000 498.000000"
 preserveAspectRatio="xMidYMid meet">
<metadata>
Created by potrace 1.11, written by Peter Selinger 2001-2013
</metadata>
<g transform="translate(0.000000,498.000000) scale(0.100000,-0.100000)"
fill="#000000" stroke="none">
<path d="M4567 4153 c-1 0 -132 -4 -292 -7 -159 -4 -360 -9 -445 -11 -85 -2
-265 -7 -400 -10 -260 -5 -548 -12 -850 -20 -236 -6 -683 -16 -824 -19 -61 -2
-112 -7 -114 -12 -8 -19 12 21 -1333 -2652 -165 -326 -299 -597 -299 -601 0
-5 12 -7 27 -5 16 2 141 5 278 9 138 3 342 7 455 10 113 3 297 8 410 10 113 3
304 7 425 10 121 3 299 7 395 10 96 2 299 7 450 11 151 3 318 8 370 9 52 2
131 3 176 4 l80 1 22 42 c37 72 67 123 75 126 4 2 7 8 7 13 0 5 19 42 43 82
52 86 121 206 217 372 9 17 41 71 70 120 67 115 85 147 101 176 8 13 23 40 35
59 31 51 128 219 154 265 20 35 355 615 408 705 12 19 41 71 67 115 25 44 56
98 69 120 13 22 55 94 93 160 209 360 268 462 277 482 6 13 14 23 19 23 4 0 7
4 7 9 0 5 52 97 115 205 l114 197 -200 -3 c-110 -2 -201 -4 -202 -5z"/>
</g>
</svg>
