<?xml version="1.0" encoding="iso-8859-1"?>
<!-- Generator: Adobe Illustrator 19.0.0, SVG Export Plug-In . SVG Version: 6.00 Build 0)  -->
<svg version="1.1" id="Capa_1" xmlns="http://www.w3.org/2000/svg" xmlns:xlink="http://www.w3.org/1999/xlink" x="0px" y="0px"
	 viewBox="0 0 512 512" style="enable-background:new 0 0 512 512;" xml:space="preserve">
<g>
	<g>
		<path d="M448,64.003H64c-35.296,0-64,28.704-64,64v256c0,35.296,28.704,64,64,64h384c35.296,0,64-28.704,64-64v-256
			C512,92.707,483.296,64.003,448,64.003z M480,384.003c0,17.664-14.336,32-32,32H64c-17.632,0-32-14.336-32-32v-256
			c0-17.632,14.368-32,32-32h384c17.664,0,32,14.368,32,32V384.003z"/>
	</g>
</g>
<g>
	<g>
		<path d="M461.312,71.139c-4.928-7.392-14.88-9.344-22.176-4.448L256,188.771L72.864,66.691c-7.392-4.896-17.28-2.912-22.176,4.448
			s-2.912,17.28,4.448,22.176l192,128c2.688,1.792,5.76,2.688,8.864,2.688s6.176-0.896,8.864-2.688l192-128
			C464.224,88.419,466.208,78.499,461.312,71.139z"/>
	</g>
</g>
<g>
	<g>
		<path d="M441.408,419.075l-352-256c-4.864-3.584-11.328-4.064-16.672-1.344C67.36,164.483,64,169.987,64,176.003v256
			c0,8.832,7.168,16,16,16c8.832,0,16-7.168,16-16V207.427l326.592,237.504c2.848,2.08,6.112,3.072,9.408,3.072
			c4.928,0,9.824-2.272,12.928-6.592C450.112,434.275,448.576,424.259,441.408,419.075z"/>
	</g>
</g>
<g>
	<g>
		<path d="M439.232,161.731c-5.344-2.656-11.84-2.176-16.672,1.344l-352,256c-7.136,5.184-8.736,15.168-3.52,22.336
			c3.136,4.32,8,6.592,12.96,6.592c3.296,0,6.56-0.992,9.408-3.072L416,207.427v224.576c0,8.832,7.168,16,16,16
			c8.832,0,16-7.168,16-16v-256C448,169.987,444.64,164.483,439.232,161.731z"/>
	</g>
</g>
<g>
</g>
<g>
</g>
<g>
</g>
<g>
</g>
<g>
</g>
<g>
</g>
<g>
</g>
<g>
</g>
<g>
</g>
<g>
</g>
<g>
</g>
<g>
</g>
<g>
</g>
<g>
</g>
<g>
</g>
</svg>
