<?xml version="1.0" encoding="iso-8859-1"?>
<!-- Generator: Adobe Illustrator 19.0.0, SVG Export Plug-In . SVG Version: 6.00 Build 0)  -->
<svg version="1.1" id="Capa_1" xmlns="http://www.w3.org/2000/svg" xmlns:xlink="http://www.w3.org/1999/xlink" x="0px" y="0px"
	 viewBox="0 0 512 512" style="enable-background:new 0 0 512 512;" xml:space="preserve">
<g>
	<g>
		<path d="M467,76H45C20.187,76,0,96.187,0,121v270c0,24.813,20.187,45,45,45h422c24.813,0,45-20.187,45-45V121
			C512,96.187,491.813,76,467,76z M418.235,106L256,267.418L93.765,106H418.235z M59,406H45c-8.271,0-15-6.729-15-15V169.506
			l29,28.566V406z M421,406H88V227.921L202.965,341.6c14.136,14.154,32.971,21.949,53.035,21.949
			c20.064,0,38.899-7.795,53.001-21.916L421,230.486V406z M482,391c0,8.271-6.729,15-15,15h-16V200.637l31-31.131V391z M482,127.187
			L287.809,320.4c-8.468,8.479-19.765,13.149-31.809,13.149s-23.34-4.669-31.842-13.182L30,127.187V121c0-8.271,6.729-15,15-15
			h6.231L256,309.738L460.769,106H467c8.271,0,15,6.729,15,15V127.187z"/>
	</g>
</g>
<g>
</g>
<g>
</g>
<g>
</g>
<g>
</g>
<g>
</g>
<g>
</g>
<g>
</g>
<g>
</g>
<g>
</g>
<g>
</g>
<g>
</g>
<g>
</g>
<g>
</g>
<g>
</g>
<g>
</g>
</svg>
